<svg id="line" height="512" viewBox="0 0 64 64" width="512" xmlns="http://www.w3.org/2000/svg"><path d="m62.394 22.081-21-9a1 1 0 0 0 -.788 0l-21 9a1 1 0 0 0 -.606.919v8.528a33.792 33.792 0 0 0 21.644 31.407 1 1 0 0 0 .712 0 33.792 33.792 0 0 0 21.644-31.407v-8.528a1 1 0 0 0 -.606-.919zm-11.772 12.919-10.368 8.609a1.7 1.7 0 0 1 -1.979.135l-6.709-4.17a1.7 1.7 0 1 1 1.791-2.881l5.67 3.525 9.428-7.827a1.7 1.7 0 0 1 2.167 2.609z" fill="#c4a2fc"/><g fill="#151a6a"><path d="m32 1h-28a3 3 0 0 0 -3 3v36a3 3 0 0 0 3 3h28a3 3 0 0 0 3-3v-36a3 3 0 0 0 -3-3zm1 39a1 1 0 0 1 -1 1h-28a1 1 0 0 1 -1-1v-36a1 1 0 0 1 1-1h28a1 1 0 0 1 1 1z"/><path d="m8 19h6a2 2 0 0 0 2-2v-1a4.988 4.988 0 0 0 -2.36-4.228 3.466 3.466 0 0 0 .86-2.272 3.5 3.5 0 0 0 -7 0 3.466 3.466 0 0 0 .86 2.272 4.988 4.988 0 0 0 -2.36 4.228v1a2 2 0 0 0 2 2zm1.5-9.5a1.5 1.5 0 1 1 1.5 1.5 1.5 1.5 0 0 1 -1.5-1.5zm-1.5 6.5a3 3 0 0 1 6 0v1h-6z"/><path d="m29 9h-9a1 1 0 0 0 0 2h9a1 1 0 0 0 0-2z"/><path d="m29 17h-9a1 1 0 0 0 0 2h9a1 1 0 0 0 0-2z"/><path d="m29 25h-22a1 1 0 0 0 0 2h22a1 1 0 0 0 0-2z"/><path d="m29 33h-22a1 1 0 0 0 0 2h22a1 1 0 0 0 0-2z"/></g></svg>