<?xml version="1.0"?>
<svg xmlns="http://www.w3.org/2000/svg" viewBox="0 0 512 512" width="512" height="512"><g id="_19-ewallet" data-name="19-ewallet"><g id="linear_color" data-name="linear color"><path d="M408,6H168a26.03,26.03,0,0,0-26,26V140H82a42.047,42.047,0,0,0-42,42V310a42.047,42.047,0,0,0,42,42h60V480a26.03,26.03,0,0,0,26,26H408a26.03,26.03,0,0,0,26-26V32A26.03,26.03,0,0,0,408,6ZM168,26H408a6.006,6.006,0,0,1,6,6V61.956H162V32A6.006,6.006,0,0,1,168,26ZM60,310V182a22.025,22.025,0,0,1,22-22H248v52H226a26.029,26.029,0,0,0-26,26v16a26.029,26.029,0,0,0,26,26h22v52H82A22.025,22.025,0,0,1,60,310Zm204-78v28H226a6.006,6.006,0,0,1-6-6V238a6.006,6.006,0,0,1,6-6Zm-6,120a10,10,0,0,0,10-10V280h6a10,10,0,0,0,10-10V222a10,10,0,0,0-10-10h-6V150a10,10,0,0,0-10-10H162V81.956H414V406.043H162V352ZM408,486H168a6.006,6.006,0,0,1-6-6V426.043H414V480A6.006,6.006,0,0,1,408,486Z"/><path d="M314.044,446.021H263.087a10,10,0,0,0,0,20h50.957a10,10,0,0,0,0-20Z"/><path d="M172,270a34.038,34.038,0,0,0-34-34H122a14,14,0,0,1,0-28h24a6.006,6.006,0,0,1,6,6,10,10,0,0,0,20,0,26.029,26.029,0,0,0-26-26h-6v-6a10,10,0,0,0-20,0v6.063A34,34,0,0,0,122,256h16a14,14,0,0,1,0,28H115a6.006,6.006,0,0,1-6-6,10,10,0,0,0-20,0,26.029,26.029,0,0,0,26,26h5v6a10,10,0,0,0,20,0v-6.063A34.041,34.041,0,0,0,172,270Z"/><path d="M325.208,242.782a21.862,21.862,0,0,1-6.443,15.558,10,10,0,1,0,14.142,14.14,42,42,0,0,0,0-59.4,10,10,0,0,0-14.142,14.143A21.85,21.85,0,0,1,325.208,242.782Z"/><path d="M352.705,306.423a10,10,0,0,0,14.143,0,90,90,0,0,0,0-127.28,10,10,0,0,0-14.143,14.142,70,70,0,0,1,0,98.995A10,10,0,0,0,352.705,306.423Z"/></g></g></svg>
